<?xml version="1.0" encoding="UTF-8" standalone="no"?><svg xmlns="http://www.w3.org/2000/svg" xmlns:xlink="http://www.w3.org/1999/xlink" contentStyleType="text/css" height="248px" preserveAspectRatio="none" style="width:458px;height:248px;background:#FFFFFF;" version="1.1" viewBox="0 0 458 248" width="458px" zoomAndPan="magnify"><defs/><g><!--MD5=[3618a374bd976662547feba7b42f282d]
class Scenario--><g id="elem_Scenario"><rect codeLine="1" fill="#F1F1F1" height="80.5938" id="Scenario" rx="2.5" ry="2.5" style="stroke:#181818;stroke-width:0.5;" width="94" x="7" y="136"/><ellipse cx="22" cy="152" fill="#ADD1B2" rx="11" ry="11" style="stroke:#181818;stroke-width:1.0;"/><path d="M24.3438,147.6719 C23.4063,147.2344 22.8125,147.0938 21.9375,147.0938 C19.3125,147.0938 17.3125,149.1719 17.3125,151.8906 L17.3125,153.0156 C17.3125,155.5938 19.4219,157.4844 22.3125,157.4844 C23.5313,157.4844 24.6875,157.1875 25.4375,156.6406 C26.0156,156.2344 26.3438,155.7813 26.3438,155.3906 C26.3438,154.9375 25.9531,154.5469 25.4844,154.5469 C25.2656,154.5469 25.0625,154.625 24.875,154.8125 C24.4219,155.2969 24.4219,155.2969 24.2344,155.3906 C23.8125,155.6563 23.125,155.7813 22.3594,155.7813 C20.3125,155.7813 19.0156,154.6875 19.0156,152.9844 L19.0156,151.8906 C19.0156,150.1094 20.2656,148.7969 22,148.7969 C22.5781,148.7969 23.1875,148.9531 23.6563,149.2031 C24.1406,149.4844 24.3125,149.7031 24.4063,150.1094 C24.4688,150.5156 24.5,150.6406 24.6406,150.7656 C24.7813,150.9063 25.0156,151.0156 25.2344,151.0156 C25.5,151.0156 25.7656,150.875 25.9375,150.6563 C26.0469,150.5 26.0781,150.3125 26.0781,149.8906 L26.0781,148.4688 C26.0781,148.0313 26.0625,147.9063 25.9688,147.75 C25.8125,147.4844 25.5313,147.3438 25.2344,147.3438 C24.9375,147.3438 24.7344,147.4375 24.5156,147.75 L24.3438,147.6719 Z " fill="#000000"/><text fill="#000000" font-family="sans-serif" font-size="14" lengthAdjust="spacing" textLength="62" x="36" y="156.8467">Scenario</text><line style="stroke:#181818;stroke-width:0.5;" x1="8" x2="100" y1="168" y2="168"/><line style="stroke:#181818;stroke-width:0.5;" x1="8" x2="100" y1="176" y2="176"/><text fill="#000000" font-family="sans-serif" font-size="14" lengthAdjust="spacing" textLength="37" x="13" y="192.9951">end()</text><text fill="#000000" font-family="sans-serif" font-size="14" lengthAdjust="spacing" textLength="15" x="13" y="209.292">...</text></g><!--MD5=[2cb47ba637a0d19583e6199456f6ad0b]
class Player--><g id="elem_Player"><rect codeLine="6" fill="#F1F1F1" height="64.2969" id="Player" rx="2.5" ry="2.5" style="stroke:#181818;stroke-width:0.5;" width="76" x="275" y="144.5"/><ellipse cx="290" cy="160.5" fill="#ADD1B2" rx="11" ry="11" style="stroke:#181818;stroke-width:1.0;"/><path d="M292.3438,156.1719 C291.4063,155.7344 290.8125,155.5938 289.9375,155.5938 C287.3125,155.5938 285.3125,157.6719 285.3125,160.3906 L285.3125,161.5156 C285.3125,164.0938 287.4219,165.9844 290.3125,165.9844 C291.5313,165.9844 292.6875,165.6875 293.4375,165.1406 C294.0156,164.7344 294.3438,164.2813 294.3438,163.8906 C294.3438,163.4375 293.9531,163.0469 293.4844,163.0469 C293.2656,163.0469 293.0625,163.125 292.875,163.3125 C292.4219,163.7969 292.4219,163.7969 292.2344,163.8906 C291.8125,164.1563 291.125,164.2813 290.3594,164.2813 C288.3125,164.2813 287.0156,163.1875 287.0156,161.4844 L287.0156,160.3906 C287.0156,158.6094 288.2656,157.2969 290,157.2969 C290.5781,157.2969 291.1875,157.4531 291.6563,157.7031 C292.1406,157.9844 292.3125,158.2031 292.4063,158.6094 C292.4688,159.0156 292.5,159.1406 292.6406,159.2656 C292.7813,159.4063 293.0156,159.5156 293.2344,159.5156 C293.5,159.5156 293.7656,159.375 293.9375,159.1563 C294.0469,159 294.0781,158.8125 294.0781,158.3906 L294.0781,156.9688 C294.0781,156.5313 294.0625,156.4063 293.9688,156.25 C293.8125,155.9844 293.5313,155.8438 293.2344,155.8438 C292.9375,155.8438 292.7344,155.9375 292.5156,156.25 L292.3438,156.1719 Z " fill="#000000"/><text fill="#000000" font-family="sans-serif" font-size="14" lengthAdjust="spacing" textLength="44" x="304" y="165.3467">Player</text><line style="stroke:#181818;stroke-width:0.5;" x1="276" x2="350" y1="176.5" y2="176.5"/><line style="stroke:#181818;stroke-width:0.5;" x1="276" x2="350" y1="184.5" y2="184.5"/><text fill="#000000" font-family="sans-serif" font-size="14" lengthAdjust="spacing" textLength="15" x="281" y="201.4951">...</text></g><!--MD5=[50cdb932a9a3968e2a6da4b7868254f5]
class Boss--><g id="elem_Boss"><rect codeLine="10" fill="#F1F1F1" height="64.2969" id="Boss" rx="2.5" ry="2.5" style="stroke:#181818;stroke-width:0.5;" width="65" x="386.5" y="144.5"/><ellipse cx="401.5" cy="160.5" fill="#ADD1B2" rx="11" ry="11" style="stroke:#181818;stroke-width:1.0;"/><path d="M403.8438,156.1719 C402.9063,155.7344 402.3125,155.5938 401.4375,155.5938 C398.8125,155.5938 396.8125,157.6719 396.8125,160.3906 L396.8125,161.5156 C396.8125,164.0938 398.9219,165.9844 401.8125,165.9844 C403.0313,165.9844 404.1875,165.6875 404.9375,165.1406 C405.5156,164.7344 405.8438,164.2813 405.8438,163.8906 C405.8438,163.4375 405.4531,163.0469 404.9844,163.0469 C404.7656,163.0469 404.5625,163.125 404.375,163.3125 C403.9219,163.7969 403.9219,163.7969 403.7344,163.8906 C403.3125,164.1563 402.625,164.2813 401.8594,164.2813 C399.8125,164.2813 398.5156,163.1875 398.5156,161.4844 L398.5156,160.3906 C398.5156,158.6094 399.7656,157.2969 401.5,157.2969 C402.0781,157.2969 402.6875,157.4531 403.1563,157.7031 C403.6406,157.9844 403.8125,158.2031 403.9063,158.6094 C403.9688,159.0156 404,159.1406 404.1406,159.2656 C404.2813,159.4063 404.5156,159.5156 404.7344,159.5156 C405,159.5156 405.2656,159.375 405.4375,159.1563 C405.5469,159 405.5781,158.8125 405.5781,158.3906 L405.5781,156.9688 C405.5781,156.5313 405.5625,156.4063 405.4688,156.25 C405.3125,155.9844 405.0313,155.8438 404.7344,155.8438 C404.4375,155.8438 404.2344,155.9375 404.0156,156.25 L403.8438,156.1719 Z " fill="#000000"/><text fill="#000000" font-family="sans-serif" font-size="14" lengthAdjust="spacing" textLength="33" x="415.5" y="165.3467">Boss</text><line style="stroke:#181818;stroke-width:0.5;" x1="387.5" x2="450.5" y1="176.5" y2="176.5"/><line style="stroke:#181818;stroke-width:0.5;" x1="387.5" x2="450.5" y1="184.5" y2="184.5"/><text fill="#000000" font-family="sans-serif" font-size="14" lengthAdjust="spacing" textLength="15" x="392.5" y="201.4951">...</text></g><!--MD5=[3eff9d4279c887ef9286477750bdaaff]
class Character--><g id="elem_Character"><rect codeLine="14" fill="#F1F1F1" height="129.4844" id="Character" rx="2.5" ry="2.5" style="stroke:#181818;stroke-width:0.5;" width="103" x="136.5" y="112"/><ellipse cx="151.5" cy="128" fill="#A9DCDF" rx="11" ry="11" style="stroke:#181818;stroke-width:1.0;"/><path d="M153.5781,129.8125 L153.9688,130.7969 L153.5781,130.7969 C153.125,130.7969 153.0156,130.8125 152.8594,130.9219 C152.6094,131.0781 152.4531,131.3594 152.4531,131.6563 C152.4531,131.9219 152.5938,132.1719 152.8125,132.3281 C152.9531,132.4531 153.1563,132.5 153.5781,132.5 L155.9375,132.5 C156.2969,132.5 156.5156,132.4688 156.6563,132.375 C156.9063,132.2344 157.0625,131.9375 157.0625,131.6563 C157.0625,131.375 156.9219,131.125 156.7031,130.9688 C156.5313,130.8281 156.375,130.7969 155.9063,130.7969 L152.5156,122.5938 L148.8438,122.5938 C148.3906,122.5938 148.2656,122.6094 148.1094,122.7031 C147.8594,122.875 147.7031,123.1563 147.7031,123.4375 C147.7031,123.7188 147.8438,123.9688 148.0625,124.1406 C148.2344,124.25 148.4063,124.2813 148.8438,124.2813 L149.9219,124.2813 L147.2813,130.7969 C146.8594,130.7969 146.7031,130.8125 146.5469,130.9219 C146.2969,131.0781 146.1406,131.3594 146.1406,131.6563 C146.1406,132.2188 146.5156,132.5 147.2656,132.5 L149.5313,132.5 C149.8906,132.5 150.1094,132.4688 150.2344,132.375 C150.5,132.2344 150.6406,131.9375 150.6406,131.6563 C150.6406,131.375 150.5156,131.125 150.2969,130.9531 C150.125,130.8281 149.9844,130.7969 149.5313,130.7969 L149.1406,130.7969 L149.5313,129.8125 L153.5781,129.8125 Z M152.875,128.1094 L150.2031,128.1094 L151.5469,124.8438 L152.875,128.1094 Z " fill="#000000"/><text fill="#000000" font-family="sans-serif" font-size="14" font-style="italic" lengthAdjust="spacing" textLength="71" x="165.5" y="132.8467">Character</text><line style="stroke:#181818;stroke-width:0.5;" x1="137.5" x2="238.5" y1="144" y2="144"/><text fill="#000000" font-family="sans-serif" font-size="14" lengthAdjust="spacing" textLength="19" x="142.5" y="160.9951">hp</text><text fill="#000000" font-family="sans-serif" font-size="14" lengthAdjust="spacing" textLength="59" x="142.5" y="177.292">position</text><line style="stroke:#181818;stroke-width:0.5;" x1="137.5" x2="238.5" y1="184.5938" y2="184.5938"/><text fill="#000000" font-family="sans-serif" font-size="14" lengthAdjust="spacing" textLength="32" x="142.5" y="201.5889">die()</text><text fill="#000000" font-family="sans-serif" font-size="14" lengthAdjust="spacing" textLength="34" x="142.5" y="217.8857">win()</text><text fill="#000000" font-family="sans-serif" font-size="14" lengthAdjust="spacing" textLength="15" x="142.5" y="234.1826">...</text></g><g id="elem_door"><rect fill="#F1F1F1" height="44.5938" style="stroke:#181818;stroke-width:0.5;" width="67" x="332.5" y="7"/><text fill="#000000" font-family="sans-serif" font-size="14" lengthAdjust="spacing" textLength="33" x="349.5" y="21.9951">door</text><line style="stroke:#181818;stroke-width:0.5;" x1="333.5" x2="398.5" y1="27.2969" y2="27.2969"/><text fill="#000000" font-family="sans-serif" font-size="14" lengthAdjust="spacing" textLength="55" x="338.5" y="44.292">spawn()</text></g><!--MD5=[e2a5341b1bac3c363f80c31c80844d91]
reverse link Character to Boss--><g id="link_Character_Boss"><path codeLine="26" d="M249.172,98.243 C257.327,91.734 266.136,86.091 275.5,82 C306.452,68.476 321.466,66.544 351.5,82 C376.777,95.008 394.687,122.355 405.677,144.2985 " fill="none" id="Character-backto-Boss" style="stroke:#181818;stroke-width:1.0;"/><polygon fill="none" points="253.86,103.441,234.325,111.649,244.478,93.05,253.86,103.441" style="stroke:#181818;stroke-width:1.0;"/></g><!--MD5=[d028b69556776b8cc77fe2b40436bca4]
reverse link Character to Player--><g id="link_Character_Player"><path codeLine="27" d="M259.827,176.5 C264.868,176.5 269.908,176.5 274.948,176.5 " fill="none" id="Character-backto-Player" style="stroke:#181818;stroke-width:1.0;"/><polygon fill="none" points="259.758,183.4999,239.758,176.5,259.758,169.4999,259.758,183.4999" style="stroke:#181818;stroke-width:1.0;"/></g><!--MD5=[cc9d0da44d4c2181005eb952d91788c2]
link Scenario to Character--><g id="link_Scenario_Character"><path codeLine="28" d="M101.1094,176.5 C111.129,176.5 121.149,176.5 131.169,176.5 " fill="none" id="Scenario-to-Character" style="stroke:#181818;stroke-width:1.0;"/><polygon fill="#181818" points="136.409,176.5,127.409,172.5,131.409,176.5,127.409,180.5,136.409,176.5" style="stroke:#181818;stroke-width:1.0;"/><text fill="#000000" font-family="sans-serif" font-size="13" lengthAdjust="spacing" textLength="7" x="121.6618" y="172.4875">*</text></g><!--MD5=[6b51c57f101d9ae9a75a8aee464755f0]
reverse link door to Boss--><g id="link_door_Boss"><path codeLine="29" d="M375.671,56.959 C384.661,81.555 398.059,118.208 407.573,144.2373 " fill="none" id="door-backto-Boss" style="stroke:#181818;stroke-width:1.0;stroke-dasharray:7.0,7.0;"/><polygon fill="#181818" points="373.935,52.208,373.2693,62.0343,375.6522,56.9039,380.7827,59.2868,373.935,52.208" style="stroke:#181818;stroke-width:1.0;"/></g><!--MD5=[e936e6bed7cc6aa603d1d6a621033efd]
reverse link door to Player--><g id="link_door_Player"><path codeLine="30" d="M356.329,56.959 C347.339,81.555 333.941,118.208 324.427,144.2373 " fill="none" id="door-backto-Player" style="stroke:#181818;stroke-width:1.0;stroke-dasharray:7.0,7.0;"/><polygon fill="#181818" points="358.065,52.208,351.2173,59.2868,356.3478,56.9039,358.7307,62.0343,358.065,52.208" style="stroke:#181818;stroke-width:1.0;"/></g><!--MD5=[cff13e9b26400536a63686ad0e7176f1]
@startuml
class Scenario {
   end()
   {method} ...
}

class Player {
   {method} ...
}

class Boss{
   {method} ...
}

abstract class Character{
   hp
   position
   die()
   win()
   {method} ...
}

object door {
   spawn()
}

Character <|- Boss
Character <|- Player
Scenario -> "*" Character
door <.. Boss
door <.. Player
@enduml

PlantUML version 1.2022.10beta1(Unknown compile time)
(GPL source distribution)
Java Runtime: Java(TM) SE Runtime Environment
JVM: Java HotSpot(TM) 64-Bit Server VM
Default Encoding: UTF-8
Language: en
Country: US
--></g></svg>