<?xml version="1.0" encoding="UTF-8" standalone="no"?><svg xmlns="http://www.w3.org/2000/svg" xmlns:xlink="http://www.w3.org/1999/xlink" contentStyleType="text/css" height="376px" preserveAspectRatio="none" style="width:570px;height:376px;background:#FFFFFF;" version="1.1" viewBox="0 0 570 376" width="570px" zoomAndPan="magnify"><defs/><g><!--MD5=[3618a374bd976662547feba7b42f282d]
class Scenario--><g id="elem_Scenario"><rect codeLine="1" fill="#F1F1F1" height="145.7813" id="Scenario" rx="2.5" ry="2.5" style="stroke:#181818;stroke-width:0.5;" width="149" x="7" y="50.182"/><ellipse cx="46.75" cy="66.182" fill="#ADD1B2" rx="11" ry="11" style="stroke:#181818;stroke-width:1.0;"/><path d="M49.0938,61.8539 C48.1563,61.4164 47.5625,61.2758 46.6875,61.2758 C44.0625,61.2758 42.0625,63.3539 42.0625,66.0726 L42.0625,67.1976 C42.0625,69.7758 44.1719,71.6664 47.0625,71.6664 C48.2813,71.6664 49.4375,71.3695 50.1875,70.8226 C50.7656,70.4164 51.0938,69.9633 51.0938,69.5726 C51.0938,69.1195 50.7031,68.7289 50.2344,68.7289 C50.0156,68.7289 49.8125,68.807 49.625,68.9945 C49.1719,69.4789 49.1719,69.4789 48.9844,69.5726 C48.5625,69.8383 47.875,69.9633 47.1094,69.9633 C45.0625,69.9633 43.7656,68.8695 43.7656,67.1664 L43.7656,66.0726 C43.7656,64.2914 45.0156,62.9789 46.75,62.9789 C47.3281,62.9789 47.9375,63.1351 48.4063,63.3851 C48.8906,63.6664 49.0625,63.8851 49.1563,64.2914 C49.2188,64.6976 49.25,64.8226 49.3906,64.9476 C49.5313,65.0883 49.7656,65.1976 49.9844,65.1976 C50.25,65.1976 50.5156,65.057 50.6875,64.8383 C50.7969,64.682 50.8281,64.4945 50.8281,64.0726 L50.8281,62.6508 C50.8281,62.2133 50.8125,62.0883 50.7188,61.932 C50.5625,61.6664 50.2813,61.5258 49.9844,61.5258 C49.6875,61.5258 49.4844,61.6195 49.2656,61.932 L49.0938,61.8539 Z " fill="#000000"/><text fill="#000000" font-family="sans-serif" font-size="14" lengthAdjust="spacing" textLength="62" x="66.25" y="71.0287">Scenario</text><line style="stroke:#181818;stroke-width:0.5;" x1="8" x2="155" y1="82.182" y2="82.182"/><text fill="#000000" font-family="sans-serif" font-size="14" lengthAdjust="spacing" textLength="137" x="13" y="99.1771">playerBasePosition</text><text fill="#000000" font-family="sans-serif" font-size="14" lengthAdjust="spacing" textLength="125" x="13" y="115.474">bossBasePosition</text><text fill="#000000" font-family="sans-serif" font-size="14" lengthAdjust="spacing" textLength="58" x="13" y="131.7709">dificulty</text><line style="stroke:#181818;stroke-width:0.5;" x1="8" x2="155" y1="139.0726" y2="139.0726"/><text fill="#000000" font-family="sans-serif" font-size="14" lengthAdjust="spacing" textLength="134" x="13" y="156.0677">calculateBossLife()</text><text fill="#000000" font-family="sans-serif" font-size="14" lengthAdjust="spacing" textLength="40" x="13" y="172.3646">load()</text><text fill="#000000" font-family="sans-serif" font-size="14" lengthAdjust="spacing" textLength="15" x="13" y="188.6615">...</text></g><!--MD5=[2cb47ba637a0d19583e6199456f6ad0b]
class Player--><g id="elem_Player"><rect codeLine="10" fill="#F1F1F1" height="64.2969" id="Player" rx="2.5" ry="2.5" style="stroke:#181818;stroke-width:0.5;" width="76" x="330.5" y="91.182"/><ellipse cx="345.5" cy="107.182" fill="#ADD1B2" rx="11" ry="11" style="stroke:#181818;stroke-width:1.0;"/><path d="M347.8438,102.8539 C346.9063,102.4164 346.3125,102.2758 345.4375,102.2758 C342.8125,102.2758 340.8125,104.3539 340.8125,107.0726 L340.8125,108.1976 C340.8125,110.7758 342.9219,112.6664 345.8125,112.6664 C347.0313,112.6664 348.1875,112.3695 348.9375,111.8226 C349.5156,111.4164 349.8438,110.9633 349.8438,110.5726 C349.8438,110.1195 349.4531,109.7289 348.9844,109.7289 C348.7656,109.7289 348.5625,109.807 348.375,109.9945 C347.9219,110.4789 347.9219,110.4789 347.7344,110.5726 C347.3125,110.8383 346.625,110.9633 345.8594,110.9633 C343.8125,110.9633 342.5156,109.8695 342.5156,108.1664 L342.5156,107.0726 C342.5156,105.2914 343.7656,103.9789 345.5,103.9789 C346.0781,103.9789 346.6875,104.1351 347.1563,104.3851 C347.6406,104.6664 347.8125,104.8851 347.9063,105.2914 C347.9688,105.6976 348,105.8226 348.1406,105.9476 C348.2813,106.0883 348.5156,106.1976 348.7344,106.1976 C349,106.1976 349.2656,106.057 349.4375,105.8383 C349.5469,105.682 349.5781,105.4945 349.5781,105.0726 L349.5781,103.6508 C349.5781,103.2133 349.5625,103.0883 349.4688,102.932 C349.3125,102.6664 349.0313,102.5258 348.7344,102.5258 C348.4375,102.5258 348.2344,102.6195 348.0156,102.932 L347.8438,102.8539 Z " fill="#000000"/><text fill="#000000" font-family="sans-serif" font-size="14" lengthAdjust="spacing" textLength="44" x="359.5" y="112.0287">Player</text><line style="stroke:#181818;stroke-width:0.5;" x1="331.5" x2="405.5" y1="123.182" y2="123.182"/><line style="stroke:#181818;stroke-width:0.5;" x1="331.5" x2="405.5" y1="131.182" y2="131.182"/><text fill="#000000" font-family="sans-serif" font-size="14" lengthAdjust="spacing" textLength="15" x="336.5" y="148.1771">...</text></g><!--MD5=[50cdb932a9a3968e2a6da4b7868254f5]
class Boss--><g id="elem_Boss"><rect codeLine="14" fill="#F1F1F1" height="113.1875" id="Boss" rx="2.5" ry="2.5" style="stroke:#181818;stroke-width:0.5;" width="121" x="442" y="66.682"/><ellipse cx="482.2" cy="82.682" fill="#ADD1B2" rx="11" ry="11" style="stroke:#181818;stroke-width:1.0;"/><path d="M484.5438,78.3539 C483.6063,77.9164 483.0125,77.7758 482.1375,77.7758 C479.5125,77.7758 477.5125,79.8539 477.5125,82.5726 L477.5125,83.6976 C477.5125,86.2758 479.6219,88.1664 482.5125,88.1664 C483.7313,88.1664 484.8875,87.8695 485.6375,87.3226 C486.2156,86.9164 486.5438,86.4633 486.5438,86.0726 C486.5438,85.6195 486.1531,85.2289 485.6844,85.2289 C485.4656,85.2289 485.2625,85.307 485.075,85.4945 C484.6219,85.9789 484.6219,85.9789 484.4344,86.0726 C484.0125,86.3383 483.325,86.4633 482.5594,86.4633 C480.5125,86.4633 479.2156,85.3695 479.2156,83.6664 L479.2156,82.5726 C479.2156,80.7914 480.4656,79.4789 482.2,79.4789 C482.7781,79.4789 483.3875,79.6351 483.8563,79.8851 C484.3406,80.1664 484.5125,80.3851 484.6063,80.7914 C484.6688,81.1976 484.7,81.3226 484.8406,81.4476 C484.9813,81.5883 485.2156,81.6976 485.4344,81.6976 C485.7,81.6976 485.9656,81.557 486.1375,81.3383 C486.2469,81.182 486.2781,80.9945 486.2781,80.5726 L486.2781,79.1508 C486.2781,78.7133 486.2625,78.5883 486.1688,78.432 C486.0125,78.1664 485.7313,78.0258 485.4344,78.0258 C485.1375,78.0258 484.9344,78.1195 484.7156,78.432 L484.5438,78.3539 Z " fill="#000000"/><text fill="#000000" font-family="sans-serif" font-size="14" lengthAdjust="spacing" textLength="33" x="501.8" y="87.5287">Boss</text><line style="stroke:#181818;stroke-width:0.5;" x1="443" x2="562" y1="98.682" y2="98.682"/><text fill="#000000" font-family="sans-serif" font-size="14" lengthAdjust="spacing" textLength="58" x="448" y="115.6771">dificulty</text><line style="stroke:#181818;stroke-width:0.5;" x1="443" x2="562" y1="122.9789" y2="122.9789"/><text fill="#000000" font-family="sans-serif" font-size="14" lengthAdjust="spacing" textLength="109" x="448" y="139.974">randomImage()</text><text fill="#000000" font-family="sans-serif" font-size="14" lengthAdjust="spacing" textLength="45" x="448" y="156.2709">start()</text><text fill="#000000" font-family="sans-serif" font-size="14" lengthAdjust="spacing" textLength="15" x="448" y="172.5677">...</text></g><!--MD5=[3eff9d4279c887ef9286477750bdaaff]
class Character--><g id="elem_Character"><rect codeLine="21" fill="#F1F1F1" height="129.4844" id="Character" rx="2.5" ry="2.5" style="stroke:#181818;stroke-width:0.5;" width="104" x="191.5" y="58.682"/><ellipse cx="206.95" cy="74.682" fill="#A9DCDF" rx="11" ry="11" style="stroke:#181818;stroke-width:1.0;"/><path d="M209.0281,76.4945 L209.4188,77.4789 L209.0281,77.4789 C208.575,77.4789 208.4656,77.4945 208.3094,77.6039 C208.0594,77.7601 207.9031,78.0414 207.9031,78.3383 C207.9031,78.6039 208.0438,78.8539 208.2625,79.0101 C208.4031,79.1351 208.6063,79.182 209.0281,79.182 L211.3875,79.182 C211.7469,79.182 211.9656,79.1508 212.1063,79.057 C212.3563,78.9164 212.5125,78.6195 212.5125,78.3383 C212.5125,78.057 212.3719,77.807 212.1531,77.6508 C211.9813,77.5101 211.825,77.4789 211.3563,77.4789 L207.9656,69.2758 L204.2938,69.2758 C203.8406,69.2758 203.7156,69.2914 203.5594,69.3851 C203.3094,69.557 203.1531,69.8383 203.1531,70.1195 C203.1531,70.4008 203.2938,70.6508 203.5125,70.8226 C203.6844,70.932 203.8563,70.9633 204.2938,70.9633 L205.3719,70.9633 L202.7313,77.4789 C202.3094,77.4789 202.1531,77.4945 201.9969,77.6039 C201.7469,77.7601 201.5906,78.0414 201.5906,78.3383 C201.5906,78.9008 201.9656,79.182 202.7156,79.182 L204.9813,79.182 C205.3406,79.182 205.5594,79.1508 205.6844,79.057 C205.95,78.9164 206.0906,78.6195 206.0906,78.3383 C206.0906,78.057 205.9656,77.807 205.7469,77.6351 C205.575,77.5101 205.4344,77.4789 204.9813,77.4789 L204.5906,77.4789 L204.9813,76.4945 L209.0281,76.4945 Z M208.325,74.7914 L205.6531,74.7914 L206.9969,71.5258 L208.325,74.7914 Z " fill="#000000"/><text fill="#000000" font-family="sans-serif" font-size="14" font-style="italic" lengthAdjust="spacing" textLength="71" x="221.05" y="79.5287">Character</text><line style="stroke:#181818;stroke-width:0.5;" x1="192.5" x2="294.5" y1="90.682" y2="90.682"/><text fill="#000000" font-family="sans-serif" font-size="14" lengthAdjust="spacing" textLength="19" x="197.5" y="107.6771">hp</text><text fill="#000000" font-family="sans-serif" font-size="14" lengthAdjust="spacing" textLength="56" x="197.5" y="123.974">weapon</text><text fill="#000000" font-family="sans-serif" font-size="14" lengthAdjust="spacing" textLength="59" x="197.5" y="140.2709">position</text><line style="stroke:#181818;stroke-width:0.5;" x1="192.5" x2="294.5" y1="147.5726" y2="147.5726"/><text fill="#000000" font-family="sans-serif" font-size="14" lengthAdjust="spacing" textLength="92" x="197.5" y="164.5677">setWeapon()</text><text fill="#000000" font-family="sans-serif" font-size="14" lengthAdjust="spacing" textLength="15" x="197.5" y="180.8646">...</text></g><!--MD5=[a3f6aaa3f93db2c29fed664e0312b4de]
class Weapon--><g id="elem_Weapon"><rect codeLine="29" fill="#F1F1F1" height="113.1875" id="Weapon" rx="2.5" ry="2.5" style="stroke:#181818;stroke-width:0.5;" width="145" x="171" y="256.182"/><ellipse cx="210.3" cy="272.182" fill="#ADD1B2" rx="11" ry="11" style="stroke:#181818;stroke-width:1.0;"/><path d="M212.6438,267.8539 C211.7063,267.4164 211.1125,267.2758 210.2375,267.2758 C207.6125,267.2758 205.6125,269.3539 205.6125,272.0726 L205.6125,273.1976 C205.6125,275.7758 207.7219,277.6664 210.6125,277.6664 C211.8313,277.6664 212.9875,277.3695 213.7375,276.8226 C214.3156,276.4164 214.6438,275.9633 214.6438,275.5726 C214.6438,275.1195 214.2531,274.7289 213.7844,274.7289 C213.5656,274.7289 213.3625,274.807 213.175,274.9945 C212.7219,275.4789 212.7219,275.4789 212.5344,275.5726 C212.1125,275.8383 211.425,275.9633 210.6594,275.9633 C208.6125,275.9633 207.3156,274.8695 207.3156,273.1664 L207.3156,272.0726 C207.3156,270.2914 208.5656,268.9789 210.3,268.9789 C210.8781,268.9789 211.4875,269.1351 211.9563,269.3851 C212.4406,269.6664 212.6125,269.8851 212.7063,270.2914 C212.7688,270.6976 212.8,270.8226 212.9406,270.9476 C213.0813,271.0883 213.3156,271.1976 213.5344,271.1976 C213.8,271.1976 214.0656,271.057 214.2375,270.8383 C214.3469,270.682 214.3781,270.4945 214.3781,270.0726 L214.3781,268.6508 C214.3781,268.2133 214.3625,268.0883 214.2688,267.932 C214.1125,267.6664 213.8313,267.5258 213.5344,267.5258 C213.2375,267.5258 213.0344,267.6195 212.8156,267.932 L212.6438,267.8539 Z " fill="#000000"/><text fill="#000000" font-family="sans-serif" font-size="14" lengthAdjust="spacing" textLength="59" x="229.7" y="277.0287">Weapon</text><line style="stroke:#181818;stroke-width:0.5;" x1="172" x2="315" y1="288.182" y2="288.182"/><text fill="#000000" font-family="sans-serif" font-size="14" lengthAdjust="spacing" textLength="57" x="177" y="305.1771">damage</text><text fill="#000000" font-family="sans-serif" font-size="14" lengthAdjust="spacing" textLength="30" x="177" y="321.474">buff</text><line style="stroke:#181818;stroke-width:0.5;" x1="172" x2="315" y1="328.7758" y2="328.7758"/><text fill="#000000" font-family="sans-serif" font-size="14" lengthAdjust="spacing" textLength="133" x="177" y="345.7709">calculateDamage()</text><text fill="#000000" font-family="sans-serif" font-size="14" lengthAdjust="spacing" textLength="15" x="177" y="362.0677">...</text></g><!--MD5=[e2a5341b1bac3c363f80c31c80844d91]
reverse link Character to Boss--><g id="link_Character_Boss"><path codeLine="37" d="M297.509,43.793 C307.488,34.244 318.695,25.874 331,20.182 C361.656,6 376.043,6.669 407,20.182 C429.573,30.035 449.199,48.146 464.691,66.465 " fill="none" id="Character-backto-Boss" style="stroke:#181818;stroke-width:1.0;"/><polygon fill="none" points="302.562,48.638,283.782,58.452,292.343,39.069,302.562,48.638" style="stroke:#181818;stroke-width:1.0;"/></g><!--MD5=[d028b69556776b8cc77fe2b40436bca4]
reverse link Character to Player--><g id="link_Character_Player"><path codeLine="38" d="M315.791,123.182 C320.666,123.182 325.542,123.182 330.418,123.182 " fill="none" id="Character-backto-Player" style="stroke:#181818;stroke-width:1.0;"/><polygon fill="none" points="315.746,130.182,295.746,123.182,315.746,116.182,315.746,130.182" style="stroke:#181818;stroke-width:1.0;"/></g><!--MD5=[cc9d0da44d4c2181005eb952d91788c2]
link Scenario to Character--><g id="link_Scenario_Character"><path codeLine="39" d="M156.172,123.182 C166.145,123.182 176.119,123.182 186.092,123.182 " fill="none" id="Scenario-to-Character" style="stroke:#181818;stroke-width:1.0;"/><polygon fill="#181818" points="191.308,123.182,182.308,119.182,186.308,123.182,182.308,127.182,191.308,123.182" style="stroke:#181818;stroke-width:1.0;"/><text fill="#000000" font-family="sans-serif" font-size="13" lengthAdjust="spacing" textLength="7" x="176.4763" y="119.1695">*</text></g><!--MD5=[7d9efedcf5645dc18d4787b5f88e22c0]
link Character to Weapon--><g id="link_Character_Weapon"><path codeLine="40" d="M243.5,187.923 C243.5,203.363 243.5,220.017 243.5,235.95 " fill="none" id="Character-to-Weapon" style="stroke:#181818;stroke-width:1.0;stroke-dasharray:7.0,7.0;"/><polygon fill="none" points="250.5,235.957,243.5,255.957,236.5,235.957,250.5,235.957" style="stroke:#181818;stroke-width:1.0;"/></g><!--MD5=[1132162d32ce1f244ac68b9f8474ddec]
@startuml
class Scenario {
   playerBasePosition
   bossBasePosition
   dificulty
   calculateBossLife()
   load()
   {method} ...
}

class Player {
   {method} ...
}

class Boss{
   dificulty
   randomImage()
   start()
   {method} ...
}

abstract class Character{
   hp
   weapon
   position
   setWeapon()
   {method} ...
}

class Weapon {
   damage
   buff
   calculateDamage()
   {method} ...
}


Character <|- Boss
Character <|- Player
Scenario -> "*" Character
Character ..|> Weapon
@enduml

PlantUML version 1.2022.10beta1(Unknown compile time)
(GPL source distribution)
Java Runtime: Java(TM) SE Runtime Environment
JVM: Java HotSpot(TM) 64-Bit Server VM
Default Encoding: UTF-8
Language: en
Country: US
--></g></svg>