<?xml version="1.0" encoding="UTF-8" standalone="no"?><svg xmlns="http://www.w3.org/2000/svg" xmlns:xlink="http://www.w3.org/1999/xlink" contentStyleType="text/css" height="565px" preserveAspectRatio="none" style="width:388px;height:565px;background:#FFFFFF;" version="1.1" viewBox="0 0 388 565" width="388px" zoomAndPan="magnify"><defs/><g><!--MD5=[2cb47ba637a0d19583e6199456f6ad0b]
class Player--><g id="elem_Player"><rect codeLine="1" fill="#F1F1F1" height="96.8906" id="Player" rx="2.5" ry="2.5" style="stroke:#181818;stroke-width:0.5;" width="76" x="166.5" y="83.326"/><ellipse cx="181.5" cy="99.326" fill="#ADD1B2" rx="11" ry="11" style="stroke:#181818;stroke-width:1.0;"/><path d="M183.8438,94.9979 C182.9063,94.5604 182.3125,94.4198 181.4375,94.4198 C178.8125,94.4198 176.8125,96.4979 176.8125,99.2166 L176.8125,100.3416 C176.8125,102.9198 178.9219,104.8104 181.8125,104.8104 C183.0313,104.8104 184.1875,104.5135 184.9375,103.9666 C185.5156,103.5604 185.8438,103.1073 185.8438,102.7166 C185.8438,102.2635 185.4531,101.8729 184.9844,101.8729 C184.7656,101.8729 184.5625,101.951 184.375,102.1385 C183.9219,102.6229 183.9219,102.6229 183.7344,102.7166 C183.3125,102.9823 182.625,103.1073 181.8594,103.1073 C179.8125,103.1073 178.5156,102.0135 178.5156,100.3104 L178.5156,99.2166 C178.5156,97.4354 179.7656,96.1229 181.5,96.1229 C182.0781,96.1229 182.6875,96.2791 183.1563,96.5291 C183.6406,96.8104 183.8125,97.0291 183.9063,97.4354 C183.9688,97.8416 184,97.9666 184.1406,98.0916 C184.2813,98.2323 184.5156,98.3416 184.7344,98.3416 C185,98.3416 185.2656,98.201 185.4375,97.9823 C185.5469,97.826 185.5781,97.6385 185.5781,97.2166 L185.5781,95.7948 C185.5781,95.3573 185.5625,95.2323 185.4688,95.076 C185.3125,94.8104 185.0313,94.6698 184.7344,94.6698 C184.4375,94.6698 184.2344,94.7635 184.0156,95.076 L183.8438,94.9979 Z " fill="#000000"/><text fill="#000000" font-family="sans-serif" font-size="14" lengthAdjust="spacing" textLength="44" x="195.5" y="104.1727">Player</text><line style="stroke:#181818;stroke-width:0.5;" x1="167.5" x2="241.5" y1="115.326" y2="115.326"/><line style="stroke:#181818;stroke-width:0.5;" x1="167.5" x2="241.5" y1="123.326" y2="123.326"/><text fill="#000000" font-family="sans-serif" font-size="14" lengthAdjust="spacing" textLength="46" x="172.5" y="140.3211">goTo()</text><text fill="#000000" font-family="sans-serif" font-size="14" lengthAdjust="spacing" textLength="46" x="172.5" y="156.618">jump()</text><text fill="#000000" font-family="sans-serif" font-size="14" lengthAdjust="spacing" textLength="15" x="172.5" y="172.9149">...</text></g><!--MD5=[50cdb932a9a3968e2a6da4b7868254f5]
class Boss--><g id="elem_Boss"><rect codeLine="7" fill="#F1F1F1" height="80.5938" id="Boss" rx="2.5" ry="2.5" style="stroke:#181818;stroke-width:0.5;" width="103" x="278" y="91.326"/><ellipse cx="310.1" cy="107.326" fill="#ADD1B2" rx="11" ry="11" style="stroke:#181818;stroke-width:1.0;"/><path d="M312.4438,102.9979 C311.5063,102.5604 310.9125,102.4198 310.0375,102.4198 C307.4125,102.4198 305.4125,104.4979 305.4125,107.2166 L305.4125,108.3416 C305.4125,110.9198 307.5219,112.8104 310.4125,112.8104 C311.6313,112.8104 312.7875,112.5135 313.5375,111.9666 C314.1156,111.5604 314.4438,111.1073 314.4438,110.7166 C314.4438,110.2635 314.0531,109.8729 313.5844,109.8729 C313.3656,109.8729 313.1625,109.951 312.975,110.1385 C312.5219,110.6229 312.5219,110.6229 312.3344,110.7166 C311.9125,110.9823 311.225,111.1073 310.4594,111.1073 C308.4125,111.1073 307.1156,110.0135 307.1156,108.3104 L307.1156,107.2166 C307.1156,105.4354 308.3656,104.1229 310.1,104.1229 C310.6781,104.1229 311.2875,104.2791 311.7563,104.5291 C312.2406,104.8104 312.4125,105.0291 312.5063,105.4354 C312.5688,105.8416 312.6,105.9666 312.7406,106.0916 C312.8813,106.2323 313.1156,106.3416 313.3344,106.3416 C313.6,106.3416 313.8656,106.201 314.0375,105.9823 C314.1469,105.826 314.1781,105.6385 314.1781,105.2166 L314.1781,103.7948 C314.1781,103.3573 314.1625,103.2323 314.0688,103.076 C313.9125,102.8104 313.6313,102.6698 313.3344,102.6698 C313.0375,102.6698 312.8344,102.7635 312.6156,103.076 L312.4438,102.9979 Z " fill="#000000"/><text fill="#000000" font-family="sans-serif" font-size="14" lengthAdjust="spacing" textLength="33" x="327.9" y="112.1727">Boss</text><line style="stroke:#181818;stroke-width:0.5;" x1="279" x2="380" y1="123.326" y2="123.326"/><line style="stroke:#181818;stroke-width:0.5;" x1="279" x2="380" y1="131.326" y2="131.326"/><text fill="#000000" font-family="sans-serif" font-size="14" lengthAdjust="spacing" textLength="91" x="284" y="148.3211">autoAttack()</text><text fill="#000000" font-family="sans-serif" font-size="14" lengthAdjust="spacing" textLength="15" x="284" y="164.618">...</text></g><!--MD5=[3eff9d4279c887ef9286477750bdaaff]
class Character--><g id="elem_Character"><rect codeLine="12" fill="#F1F1F1" height="162.0781" id="Character" rx="2.5" ry="2.5" style="stroke:#181818;stroke-width:0.5;" width="104" x="27.5" y="50.826"/><ellipse cx="42.95" cy="66.826" fill="#A9DCDF" rx="11" ry="11" style="stroke:#181818;stroke-width:1.0;"/><path d="M45.0281,68.6385 L45.4188,69.6229 L45.0281,69.6229 C44.575,69.6229 44.4656,69.6385 44.3094,69.7479 C44.0594,69.9041 43.9031,70.1854 43.9031,70.4823 C43.9031,70.7479 44.0438,70.9979 44.2625,71.1541 C44.4031,71.2791 44.6063,71.326 45.0281,71.326 L47.3875,71.326 C47.7469,71.326 47.9656,71.2948 48.1063,71.201 C48.3563,71.0604 48.5125,70.7635 48.5125,70.4823 C48.5125,70.201 48.3719,69.951 48.1531,69.7948 C47.9813,69.6541 47.825,69.6229 47.3563,69.6229 L43.9656,61.4198 L40.2938,61.4198 C39.8406,61.4198 39.7156,61.4354 39.5594,61.5291 C39.3094,61.701 39.1531,61.9823 39.1531,62.2635 C39.1531,62.5448 39.2938,62.7948 39.5125,62.9666 C39.6844,63.076 39.8563,63.1073 40.2938,63.1073 L41.3719,63.1073 L38.7313,69.6229 C38.3094,69.6229 38.1531,69.6385 37.9969,69.7479 C37.7469,69.9041 37.5906,70.1854 37.5906,70.4823 C37.5906,71.0448 37.9656,71.326 38.7156,71.326 L40.9813,71.326 C41.3406,71.326 41.5594,71.2948 41.6844,71.201 C41.95,71.0604 42.0906,70.7635 42.0906,70.4823 C42.0906,70.201 41.9656,69.951 41.7469,69.7791 C41.575,69.6541 41.4344,69.6229 40.9813,69.6229 L40.5906,69.6229 L40.9813,68.6385 L45.0281,68.6385 Z M44.325,66.9354 L41.6531,66.9354 L42.9969,63.6698 L44.325,66.9354 Z " fill="#000000"/><text fill="#000000" font-family="sans-serif" font-size="14" font-style="italic" lengthAdjust="spacing" textLength="71" x="57.05" y="71.6727">Character</text><line style="stroke:#181818;stroke-width:0.5;" x1="28.5" x2="130.5" y1="82.826" y2="82.826"/><text fill="#000000" font-family="sans-serif" font-size="14" lengthAdjust="spacing" textLength="19" x="33.5" y="99.8211">hp</text><text fill="#000000" font-family="sans-serif" font-size="14" lengthAdjust="spacing" textLength="56" x="33.5" y="116.118">weapon</text><text fill="#000000" font-family="sans-serif" font-size="14" lengthAdjust="spacing" textLength="59" x="33.5" y="132.4149">position</text><line style="stroke:#181818;stroke-width:0.5;" x1="28.5" x2="130.5" y1="139.7166" y2="139.7166"/><text fill="#000000" font-family="sans-serif" font-size="14" lengthAdjust="spacing" textLength="92" x="33.5" y="156.7117">removeLife()</text><text fill="#000000" font-family="sans-serif" font-size="14" lengthAdjust="spacing" textLength="57" x="33.5" y="173.0086">attack()</text><text fill="#000000" font-family="sans-serif" font-size="14" lengthAdjust="spacing" textLength="92" x="33.5" y="189.3055">bulletCrash()</text><text fill="#000000" font-family="sans-serif" font-size="14" lengthAdjust="spacing" textLength="15" x="33.5" y="205.6024">...</text></g><!--MD5=[a3f6aaa3f93db2c29fed664e0312b4de]
class Weapon--><g id="elem_Weapon"><rect codeLine="22" fill="#F1F1F1" height="129.4844" id="Weapon" rx="2.5" ry="2.5" style="stroke:#181818;stroke-width:0.5;" width="145" x="7" y="272.826"/><ellipse cx="46.3" cy="288.826" fill="#ADD1B2" rx="11" ry="11" style="stroke:#181818;stroke-width:1.0;"/><path d="M48.6438,284.4979 C47.7063,284.0604 47.1125,283.9198 46.2375,283.9198 C43.6125,283.9198 41.6125,285.9979 41.6125,288.7166 L41.6125,289.8416 C41.6125,292.4198 43.7219,294.3104 46.6125,294.3104 C47.8313,294.3104 48.9875,294.0135 49.7375,293.4666 C50.3156,293.0604 50.6438,292.6073 50.6438,292.2166 C50.6438,291.7635 50.2531,291.3729 49.7844,291.3729 C49.5656,291.3729 49.3625,291.451 49.175,291.6385 C48.7219,292.1229 48.7219,292.1229 48.5344,292.2166 C48.1125,292.4823 47.425,292.6073 46.6594,292.6073 C44.6125,292.6073 43.3156,291.5135 43.3156,289.8104 L43.3156,288.7166 C43.3156,286.9354 44.5656,285.6229 46.3,285.6229 C46.8781,285.6229 47.4875,285.7791 47.9563,286.0291 C48.4406,286.3104 48.6125,286.5291 48.7063,286.9354 C48.7688,287.3416 48.8,287.4666 48.9406,287.5916 C49.0813,287.7323 49.3156,287.8416 49.5344,287.8416 C49.8,287.8416 50.0656,287.701 50.2375,287.4823 C50.3469,287.326 50.3781,287.1385 50.3781,286.7166 L50.3781,285.2948 C50.3781,284.8573 50.3625,284.7323 50.2688,284.576 C50.1125,284.3104 49.8313,284.1698 49.5344,284.1698 C49.2375,284.1698 49.0344,284.2635 48.8156,284.576 L48.6438,284.4979 Z " fill="#000000"/><text fill="#000000" font-family="sans-serif" font-size="14" lengthAdjust="spacing" textLength="59" x="65.7" y="293.6727">Weapon</text><line style="stroke:#181818;stroke-width:0.5;" x1="8" x2="151" y1="304.826" y2="304.826"/><text fill="#000000" font-family="sans-serif" font-size="14" lengthAdjust="spacing" textLength="57" x="13" y="321.8211">damage</text><text fill="#000000" font-family="sans-serif" font-size="14" lengthAdjust="spacing" textLength="30" x="13" y="338.118">buff</text><line style="stroke:#181818;stroke-width:0.5;" x1="8" x2="151" y1="345.4198" y2="345.4198"/><text fill="#000000" font-family="sans-serif" font-size="14" lengthAdjust="spacing" textLength="133" x="13" y="362.4149">calculateDamage()</text><text fill="#000000" font-family="sans-serif" font-size="14" lengthAdjust="spacing" textLength="35" x="13" y="378.7117">fire()</text><text fill="#000000" font-family="sans-serif" font-size="14" lengthAdjust="spacing" textLength="15" x="13" y="395.0086">...</text></g><!--MD5=[2824395d61b6e4620487641a86c41e67]
class Bullet--><g id="elem_Bullet"><rect codeLine="31" fill="#F1F1F1" height="96.8906" id="Bullet" rx="2.5" ry="2.5" style="stroke:#181818;stroke-width:0.5;" width="90" x="34.5" y="461.826"/><ellipse cx="56.7" cy="477.826" fill="#ADD1B2" rx="11" ry="11" style="stroke:#181818;stroke-width:1.0;"/><path d="M59.0438,473.4979 C58.1063,473.0604 57.5125,472.9198 56.6375,472.9198 C54.0125,472.9198 52.0125,474.9979 52.0125,477.7166 L52.0125,478.8416 C52.0125,481.4198 54.1219,483.3104 57.0125,483.3104 C58.2313,483.3104 59.3875,483.0135 60.1375,482.4666 C60.7156,482.0604 61.0438,481.6073 61.0438,481.2166 C61.0438,480.7635 60.6531,480.3729 60.1844,480.3729 C59.9656,480.3729 59.7625,480.451 59.575,480.6385 C59.1219,481.1229 59.1219,481.1229 58.9344,481.2166 C58.5125,481.4823 57.825,481.6073 57.0594,481.6073 C55.0125,481.6073 53.7156,480.5135 53.7156,478.8104 L53.7156,477.7166 C53.7156,475.9354 54.9656,474.6229 56.7,474.6229 C57.2781,474.6229 57.8875,474.7791 58.3563,475.0291 C58.8406,475.3104 59.0125,475.5291 59.1063,475.9354 C59.1688,476.3416 59.2,476.4666 59.3406,476.5916 C59.4813,476.7323 59.7156,476.8416 59.9344,476.8416 C60.2,476.8416 60.4656,476.701 60.6375,476.4823 C60.7469,476.326 60.7781,476.1385 60.7781,475.7166 L60.7781,474.2948 C60.7781,473.8573 60.7625,473.7323 60.6688,473.576 C60.5125,473.3104 60.2313,473.1698 59.9344,473.1698 C59.6375,473.1698 59.4344,473.2635 59.2156,473.576 L59.0438,473.4979 Z " fill="#000000"/><text fill="#000000" font-family="sans-serif" font-size="14" lengthAdjust="spacing" textLength="42" x="72.3" y="482.6727">Bullet</text><line style="stroke:#181818;stroke-width:0.5;" x1="35.5" x2="123.5" y1="493.826" y2="493.826"/><text fill="#000000" font-family="sans-serif" font-size="14" lengthAdjust="spacing" textLength="57" x="40.5" y="510.8211">damage</text><line style="stroke:#181818;stroke-width:0.5;" x1="35.5" x2="123.5" y1="518.1229" y2="518.1229"/><text fill="#000000" font-family="sans-serif" font-size="14" lengthAdjust="spacing" textLength="78" x="40.5" y="535.118">startPath()</text><text fill="#000000" font-family="sans-serif" font-size="14" lengthAdjust="spacing" textLength="15" x="40.5" y="551.4149">...</text></g><!--MD5=[e2a5341b1bac3c363f80c31c80844d91]
reverse link Character to Boss--><g id="link_Character_Boss"><path codeLine="37" d="M143.32,36.472 C150.627,30.308 158.527,24.936 167,20.826 C197.391,6.085 212.65,6 243,20.826 C272.855,35.41 295.401,65.826 309.979,91.136 " fill="none" id="Character-backto-Boss" style="stroke:#181818;stroke-width:1.0;"/><polygon fill="none" points="147.976,41.708,128.723,50.56,138.253,31.634,147.976,41.708" style="stroke:#181818;stroke-width:1.0;"/></g><!--MD5=[d028b69556776b8cc77fe2b40436bca4]
reverse link Character to Player--><g id="link_Character_Player"><path codeLine="38" d="M151.791,131.826 C156.666,131.826 161.542,131.826 166.418,131.826 " fill="none" id="Character-backto-Player" style="stroke:#181818;stroke-width:1.0;"/><polygon fill="none" points="151.746,138.826,131.746,131.826,151.746,124.826,151.746,138.826" style="stroke:#181818;stroke-width:1.0;"/></g><!--MD5=[7d9efedcf5645dc18d4787b5f88e22c0]
link Character to Weapon--><g id="link_Character_Weapon"><path codeLine="39" d="M79.5,212.962 C79.5,225.955 79.5,239.44 79.5,252.517 " fill="none" id="Character-to-Weapon" style="stroke:#181818;stroke-width:1.0;stroke-dasharray:7.0,7.0;"/><polygon fill="none" points="86.5001,252.601,79.5,272.601,72.5001,252.601,86.5001,252.601" style="stroke:#181818;stroke-width:1.0;"/></g><!--MD5=[bcad03f03f7ddbd4044bf191401ddeea]
link Weapon to Bullet--><g id="link_Weapon_Bullet"><path codeLine="40" d="M79.5,402 C79.5,414.807 79.5,428.315 79.5,441.265 " fill="none" id="Weapon-to-Bullet" style="stroke:#181818;stroke-width:1.0;stroke-dasharray:7.0,7.0;"/><polygon fill="none" points="86.5001,441.636,79.5,461.6361,72.5001,441.636,86.5001,441.636" style="stroke:#181818;stroke-width:1.0;"/></g><!--MD5=[cfd962db3fa49f500ccfeecc038713c4]
@startuml
class Player {
   goTo()
   jump()
   {method} ...
}

class Boss{
   autoAttack()
   {method} ...
}

abstract class Character{
   hp
   weapon
   position
   removeLife()
   attack()
   bulletCrash()
   {method} ...
}

class Weapon {
   damage
   buff
   calculateDamage()
   fire()
   {method} ...
}


class Bullet {
   damage
   startPath()
   {method} ...
}

Character <|- Boss
Character <|- Player
Character ..|> Weapon
Weapon ..|> Bullet
@enduml

PlantUML version 1.2022.10beta1(Unknown compile time)
(GPL source distribution)
Java Runtime: Java(TM) SE Runtime Environment
JVM: Java HotSpot(TM) 64-Bit Server VM
Default Encoding: UTF-8
Language: en
Country: US
--></g></svg>